<svg xmlns="http://www.w3.org/2000/svg" viewBox="0 0 680 310" font-family="-apple-system, BlinkMacSystemFont, 'Segoe UI', Helvetica, Arial, sans-serif">
  <defs>
    <marker id="ah" markerWidth="8" markerHeight="6" refX="8" refY="3" orient="auto">
      <polygon points="0 0, 8 3, 0 6" fill="#b0b8c4"/>
    </marker>
    <filter id="ds"><feDropShadow dx="0" dy="1" stdDeviation="2" flood-opacity="0.08"/></filter>
  </defs>

  <!-- Background card -->
  <rect width="680" height="310" rx="10" fill="#f7f8fa"/>

  <!-- Row 1: PoolFactory -->
  <rect x="245" y="20" width="190" height="46" rx="23" fill="#4a6fa5" filter="url(#ds)"/>
  <text x="340" y="48" text-anchor="middle" fill="#fff" font-size="15" font-weight="600">PoolFactory</text>

  <!-- Connector: tree structure with badge -->
  <line x1="340" y1="66" x2="340" y2="86" stroke="#b0b8c4" stroke-width="1.5"/>
  <rect x="309" y="69" width="62" height="14" rx="3" fill="#e8edf4"/>
  <text x="340" y="79" text-anchor="middle" fill="#6a7fa5" font-size="9" font-weight="500">deploys</text>
  <line x1="110" y1="86" x2="570" y2="86" stroke="#b0b8c4" stroke-width="1.5"/>
  <line x1="110" y1="86" x2="110" y2="103" stroke="#b0b8c4" stroke-width="1.5" marker-end="url(#ah)"/>
  <line x1="340" y1="86" x2="340" y2="103" stroke="#b0b8c4" stroke-width="1.5" marker-end="url(#ah)"/>
  <line x1="570" y1="86" x2="570" y2="103" stroke="#b0b8c4" stroke-width="1.5" marker-end="url(#ah)"/>

  <!-- Row 2: Three contracts -->
  <rect x="15" y="110" width="190" height="60" rx="8" fill="#5b8a72" filter="url(#ds)"/>
  <text x="110" y="132" text-anchor="middle" fill="#fff" font-size="14" font-weight="600">AdminContract</text>
  <text x="110" y="148" text-anchor="middle" fill="#d0e0d4" font-size="10" font-style="italic">treasury withdrawals</text>
  <text x="110" y="160" text-anchor="middle" fill="#d0e0d4" font-size="10" font-style="italic">governor of all pools</text>

  <rect x="245" y="110" width="190" height="60" rx="8" fill="#5b8a72" filter="url(#ds)"/>
  <text x="340" y="132" text-anchor="middle" fill="#fff" font-size="14" font-weight="600">TieredAMM</text>
  <text x="340" y="148" text-anchor="middle" fill="#d0e0d4" font-size="10" font-style="italic">swaps, mints, burns</text>
  <text x="340" y="160" text-anchor="middle" fill="#d0e0d4" font-size="10" font-style="italic">one per asset pair</text>

  <rect x="475" y="110" width="190" height="60" rx="8" fill="#5b8a72" filter="url(#ds)"/>
  <text x="570" y="132" text-anchor="middle" fill="#fff" font-size="14" font-weight="600">RegistryContract</text>
  <text x="570" y="148" text-anchor="middle" fill="#d0e0d4" font-size="10" font-style="italic">pair → pool lookups</text>
  <text x="570" y="160" text-anchor="middle" fill="#d0e0d4" font-size="10" font-style="italic">LP → tier lookups</text>

  <!-- TieredAMM → Tiers -->
  <line x1="340" y1="170" x2="340" y2="196" stroke="#b0b8c4" stroke-width="1.5" marker-end="url(#ah)"/>

  <!-- Tier segmented bar -->
  <rect x="90" y="203" width="500" height="38" rx="6" fill="#f0e8c8" stroke="#d4c48a" stroke-width="1"/>
  <line x1="173" y1="203" x2="173" y2="241" stroke="#d4c48a" stroke-width="0.5"/>
  <line x1="257" y1="203" x2="257" y2="241" stroke="#d4c48a" stroke-width="0.5"/>
  <line x1="340" y1="203" x2="340" y2="241" stroke="#d4c48a" stroke-width="0.5"/>
  <line x1="423" y1="203" x2="423" y2="241" stroke="#d4c48a" stroke-width="0.5"/>
  <line x1="507" y1="203" x2="507" y2="241" stroke="#d4c48a" stroke-width="0.5"/>

  <!-- Tier labels -->
  <text x="131" y="217" text-anchor="middle" fill="#8a6c10" font-size="12" font-weight="600">T0</text>
  <text x="131" y="233" text-anchor="middle" fill="#a09040" font-size="9">0.03 %</text>

  <text x="215" y="217" text-anchor="middle" fill="#8a6c10" font-size="12" font-weight="600">T1</text>
  <text x="215" y="233" text-anchor="middle" fill="#a09040" font-size="9">0.1 %</text>

  <text x="298" y="217" text-anchor="middle" fill="#8a6c10" font-size="12" font-weight="600">T2</text>
  <text x="298" y="233" text-anchor="middle" fill="#a09040" font-size="9">0.3 %</text>

  <text x="381" y="217" text-anchor="middle" fill="#8a6c10" font-size="12" font-weight="600">T3</text>
  <text x="381" y="233" text-anchor="middle" fill="#a09040" font-size="9">1 %</text>

  <text x="465" y="217" text-anchor="middle" fill="#8a6c10" font-size="12" font-weight="600">T4</text>
  <text x="465" y="233" text-anchor="middle" fill="#a09040" font-size="9">3 %</text>

  <text x="548" y="217" text-anchor="middle" fill="#8a4520" font-size="12" font-weight="600">TP</text>
  <text x="548" y="233" text-anchor="middle" fill="#a06040" font-size="9">≈ 0 %</text>

  <!-- Caption -->
  <text x="340" y="268" text-anchor="middle" fill="#999" font-size="10">6 independent fee tiers per pool · each with own reserves and LP token</text>
  <text x="340" y="284" text-anchor="middle" fill="#999" font-size="10">factory deploys pools · admin governs them · registry provides discovery</text>
</svg>
