<svg xmlns="http://www.w3.org/2000/svg" viewBox="0 0 540 660" font-family="-apple-system, BlinkMacSystemFont, 'Segoe UI', Helvetica, Arial, sans-serif">
  <defs>
    <marker id="ah" markerWidth="8" markerHeight="6" refX="8" refY="3" orient="auto">
      <polygon points="0 0, 8 3, 0 6" fill="#b0b8c4"/>
    </marker>
    <filter id="ds"><feDropShadow dx="0" dy="1" stdDeviation="2" flood-opacity="0.08"/></filter>
  </defs>

  <!-- Background card -->
  <rect width="540" height="660" rx="10" fill="#f7f8fa"/>

  <!-- Swap Amount -->
  <rect x="170" y="16" width="200" height="44" rx="22" fill="#4a6fa5" filter="url(#ds)"/>
  <text x="270" y="43" text-anchor="middle" fill="#fff" font-size="15" font-weight="600">Swap Amount</text>

  <line x1="270" y1="60" x2="270" y2="82" stroke="#b0b8c4" stroke-width="1.5" marker-end="url(#ah)"/>

  <!-- Two-Sided Fee -->
  <rect x="140" y="88" width="260" height="52" rx="8" fill="#5b8a72" filter="url(#ds)"/>
  <text x="270" y="108" text-anchor="middle" fill="#fff" font-size="14" font-weight="600">Two-Sided Fee</text>
  <text x="270" y="124" text-anchor="middle" fill="#d0e0d4" font-size="10" font-style="italic">half deducted from input, half from output</text>
  <text x="270" y="134" text-anchor="middle" fill="#d0e0d4" font-size="9" font-style="italic">each side floored to 1 microunit</text>

  <!-- Arrow to split diamond -->
  <line x1="270" y1="140" x2="270" y2="160" stroke="#b0b8c4" stroke-width="1.5"/>

  <!-- Split diamond -->
  <polygon points="270,160 294,178 270,196 246,178" fill="#e4e7ec" stroke="#b0b8c4" stroke-width="1.5"/>

  <!-- 80% branch -> right -> Tier Reserves -->
  <line x1="294" y1="178" x2="388" y2="178" stroke="#b0b8c4" stroke-width="1.5" marker-end="url(#ah)"/>
  <rect x="310" y="166" width="60" height="14" rx="3" fill="#e8f0e8"/>
  <text x="340" y="176" text-anchor="middle" fill="#5b8a72" font-size="10" font-weight="600">80 %</text>

  <rect x="394" y="158" width="130" height="40" rx="8" fill="#5b8a72" filter="url(#ds)" opacity="0.7"/>
  <text x="459" y="174" text-anchor="middle" fill="#fff" font-size="12" font-weight="600">Tier Reserves</text>
  <text x="459" y="188" text-anchor="middle" fill="#d0e0d4" font-size="10" font-style="italic">benefits LPs directly</text>

  <!-- 20% branch -> down -> Protocol Fee -->
  <line x1="270" y1="196" x2="270" y2="226" stroke="#b0b8c4" stroke-width="1.5" marker-end="url(#ah)"/>
  <rect x="241" y="200" width="60" height="14" rx="3" fill="#f0ebe0"/>
  <text x="271" y="210" text-anchor="middle" fill="#a09070" font-size="10" font-weight="600">20 %</text>

  <!-- Protocol Fee -->
  <rect x="140" y="232" width="260" height="48" rx="8" fill="#c9a227" filter="url(#ds)"/>
  <text x="270" y="252" text-anchor="middle" fill="#fff" font-size="14" font-weight="600">Protocol Fee</text>
  <text x="270" y="268" text-anchor="middle" fill="#f0e6c0" font-size="10" font-style="italic">extracted for redistribution</text>

  <line x1="270" y1="280" x2="270" y2="306" stroke="#b0b8c4" stroke-width="1.5" marker-end="url(#ah)"/>

  <!-- Inline Spill -->
  <rect x="140" y="312" width="260" height="48" rx="8" fill="#c9a227" filter="url(#ds)"/>
  <text x="270" y="332" text-anchor="middle" fill="#fff" font-size="14" font-weight="600">Inline Spill</text>
  <text x="270" y="348" text-anchor="middle" fill="#f0e6c0" font-size="10" font-style="italic">redistributed to weaker tiers every swap</text>

  <line x1="270" y1="360" x2="270" y2="382" stroke="#b0b8c4" stroke-width="1.5" marker-end="url(#ah)"/>

  <!-- Recipients panel -->
  <rect x="28" y="388" width="484" height="90" rx="10" fill="#f0ebe0" stroke="#ddd4c0" stroke-width="1"/>
  <text x="270" y="404" text-anchor="middle" fill="#a09070" font-size="10" font-weight="500" letter-spacing="1">SPILL RECIPIENTS</text>

  <rect x="42" y="412" width="144" height="54" rx="6" fill="#b05c3b" filter="url(#ds)"/>
  <text x="114" y="434" text-anchor="middle" fill="#fff" font-size="12" font-weight="600">55 % -> Weakest</text>
  <text x="114" y="452" text-anchor="middle" fill="#e0c8c0" font-size="9" font-style="italic">lowest k-value tier</text>

  <rect x="198" y="412" width="144" height="54" rx="6" fill="#b05c3b" filter="url(#ds)"/>
  <text x="270" y="434" text-anchor="middle" fill="#fff" font-size="12" font-weight="600">35 % -> 2nd Weak</text>
  <text x="270" y="452" text-anchor="middle" fill="#e0c8c0" font-size="9" font-style="italic">2nd lowest k-value</text>

  <rect x="354" y="412" width="144" height="54" rx="6" fill="#b05c3b" filter="url(#ds)"/>
  <text x="426" y="434" text-anchor="middle" fill="#fff" font-size="12" font-weight="600">10 % -> Tier P</text>
  <text x="426" y="452" text-anchor="middle" fill="#e0c8c0" font-size="9" font-style="italic">passive backstop</text>

  <line x1="270" y1="478" x2="270" y2="502" stroke="#b0b8c4" stroke-width="1.5" marker-end="url(#ah)"/>

  <!-- Mint LP -->
  <rect x="140" y="508" width="260" height="48" rx="8" fill="#5b8a72" filter="url(#ds)"/>
  <text x="270" y="528" text-anchor="middle" fill="#fff" font-size="14" font-weight="600">Mint LP Tokens</text>
  <text x="270" y="544" text-anchor="middle" fill="#d0e0d4" font-size="10" font-style="italic">added to recipient tiers as liquidity</text>

  <!-- Dotted dust arrow -->
  <line x1="270" y1="556" x2="270" y2="586" stroke="#b0b8c4" stroke-width="1.5" stroke-dasharray="5,3" marker-end="url(#ah)"/>
  <rect x="280" y="563" width="38" height="14" rx="3" fill="#ede8f2"/>
  <text x="299" y="573" text-anchor="middle" fill="#7a5b8a" font-size="9" font-weight="500">dust</text>

  <!-- Treasury Claims -->
  <rect x="155" y="592" width="230" height="48" rx="8" fill="#7a5b8a" filter="url(#ds)"/>
  <text x="270" y="612" text-anchor="middle" fill="#fff" font-size="14" font-weight="600">Treasury Claims</text>
  <text x="270" y="628" text-anchor="middle" fill="#d8cce0" font-size="10" font-style="italic">withdrawn on demand by admin</text>
</svg>
