<svg xmlns="http://www.w3.org/2000/svg" viewBox="0 0 520 470" font-family="-apple-system, BlinkMacSystemFont, 'Segoe UI', Helvetica, Arial, sans-serif">
  <defs>
    <marker id="ah" markerWidth="8" markerHeight="6" refX="8" refY="3" orient="auto">
      <polygon points="0 0, 8 3, 0 6" fill="#b0b8c4"/>
    </marker>
    <filter id="ds"><feDropShadow dx="0" dy="1" stdDeviation="2" flood-opacity="0.08"/></filter>
  </defs>

  <rect width="520" height="470" rx="10" fill="#f7f8fa"/>

  <!-- Title -->
  <text x="260" y="24" text-anchor="middle" fill="#999" font-size="11" font-weight="500" letter-spacing="1">CALLER-DIRECTED ROUTED SWAP</text>

  <!-- Input -->
  <rect x="110" y="38" width="300" height="44" rx="22" fill="#4a6fa5" filter="url(#ds)"/>
  <text x="260" y="57" text-anchor="middle" fill="#fff" font-size="13" font-weight="600">Trader sends input + routing legs</text>
  <text x="260" y="72" text-anchor="middle" fill="#c0d0e4" font-size="10" font-style="italic">N × 9 bytes (tier + amount per leg)</text>

  <line x1="260" y1="82" x2="260" y2="108" stroke="#b0b8c4" stroke-width="1.5" marker-end="url(#ah)"/>

  <!-- Unpack & validate -->
  <rect x="130" y="114" width="260" height="40" rx="8" fill="#5b8a72" filter="url(#ds)"/>
  <text x="260" y="139" text-anchor="middle" fill="#fff" font-size="13" font-weight="600">Unpack legs — validate sum</text>

  <line x1="260" y1="154" x2="260" y2="176" stroke="#b0b8c4" stroke-width="1.5" marker-end="url(#ah)"/>

  <!-- Legs panel -->
  <rect x="28" y="182" width="464" height="90" rx="10" fill="#f0ebe0" stroke="#ddd4c0" stroke-width="1"/>
  <text x="260" y="200" text-anchor="middle" fill="#a09070" font-size="10" font-weight="500" letter-spacing="1">EXECUTE LEGS SEQUENTIALLY (1 – 6)</text>

  <!-- Leg boxes -->
  <rect x="40" y="210" width="70" height="50" rx="6" fill="#b05c3b" filter="url(#ds)"/>
  <text x="75" y="233" text-anchor="middle" fill="#fff" font-size="11" font-weight="600">Leg 1</text>
  <text x="75" y="248" text-anchor="middle" fill="#e0c8c0" font-size="9">T₂ · 400k</text>

  <rect x="118" y="210" width="70" height="50" rx="6" fill="#b05c3b" filter="url(#ds)"/>
  <text x="153" y="233" text-anchor="middle" fill="#fff" font-size="11" font-weight="600">Leg 2</text>
  <text x="153" y="248" text-anchor="middle" fill="#e0c8c0" font-size="9">T₀ · 350k</text>

  <rect x="196" y="210" width="70" height="50" rx="6" fill="#b05c3b" filter="url(#ds)"/>
  <text x="231" y="233" text-anchor="middle" fill="#fff" font-size="11" font-weight="600">Leg 3</text>
  <text x="231" y="248" text-anchor="middle" fill="#e0c8c0" font-size="9">T₁ · 250k</text>

  <!-- Ellipsis -->
  <text x="300" y="240" text-anchor="middle" fill="#a09070" font-size="16" font-weight="600">···</text>

  <!-- Leg N -->
  <rect x="338" y="210" width="70" height="50" rx="6" fill="#b05c3b" filter="url(#ds)" opacity="0.6"/>
  <text x="373" y="233" text-anchor="middle" fill="#fff" font-size="11" font-weight="600">Leg N</text>
  <text x="373" y="248" text-anchor="middle" fill="#e0c8c0" font-size="9">T₄ · rest</text>

  <!-- Note -->
  <text x="450" y="232" fill="#a09070" font-size="10" font-style="italic">fee +</text>
  <text x="450" y="244" fill="#a09070" font-size="10" font-style="italic">k-growth</text>
  <text x="450" y="256" fill="#a09070" font-size="10" font-style="italic">each leg</text>

  <line x1="260" y1="272" x2="260" y2="296" stroke="#b0b8c4" stroke-width="1.5" marker-end="url(#ah)"/>

  <!-- Single inline spill -->
  <rect x="130" y="302" width="260" height="40" rx="8" fill="#c9a227" filter="url(#ds)"/>
  <text x="260" y="327" text-anchor="middle" fill="#fff" font-size="13" font-weight="600">Single Inline Spill (all legs)</text>

  <line x1="260" y1="342" x2="260" y2="364" stroke="#b0b8c4" stroke-width="1.5" marker-end="url(#ah)"/>

  <!-- RT update -->
  <rect x="130" y="370" width="260" height="40" rx="8" fill="#5b8a72" filter="url(#ds)" opacity="0.7"/>
  <text x="260" y="395" text-anchor="middle" fill="#fff" font-size="12" font-weight="600">Update RT for affected tiers</text>

  <line x1="260" y1="410" x2="260" y2="430" stroke="#b0b8c4" stroke-width="1.5" marker-end="url(#ah)"/>

  <!-- Output -->
  <rect x="145" y="436" width="230" height="28" rx="14" fill="#4a6fa5" filter="url(#ds)"/>
  <text x="260" y="455" text-anchor="middle" fill="#fff" font-size="13" font-weight="600">Combined Output ≥ min_output</text>
</svg>
