<svg xmlns="http://www.w3.org/2000/svg" viewBox="0 0 480 470" font-family="-apple-system, BlinkMacSystemFont, 'Segoe UI', Helvetica, Arial, sans-serif">
  <defs>
    <marker id="ah" markerWidth="8" markerHeight="6" refX="8" refY="3" orient="auto">
      <polygon points="0 0, 8 3, 0 6" fill="#b0b8c4"/>
    </marker>
    <filter id="ds"><feDropShadow dx="0" dy="1" stdDeviation="2" flood-opacity="0.08"/></filter>
  </defs>

  <rect width="480" height="470" rx="10" fill="#f7f8fa"/>

  <!-- Title -->
  <text x="240" y="24" text-anchor="middle" fill="#999" font-size="11" font-weight="500" letter-spacing="1">STANDARD SWAP</text>

  <!-- Trader sends input -->
  <rect x="120" y="38" width="240" height="48" rx="24" fill="#4a6fa5" filter="url(#ds)"/>
  <text x="240" y="58" text-anchor="middle" fill="#fff" font-size="14" font-weight="600">Trader sends Asset A</text>
  <text x="240" y="73" text-anchor="middle" fill="#c0d0e4" font-size="10" font-style="italic">to a single chosen tier</text>

  <line x1="240" y1="86" x2="240" y2="112" stroke="#b0b8c4" stroke-width="1.5" marker-end="url(#ah)"/>

  <!-- Two-Sided Fee -->
  <rect x="115" y="118" width="250" height="48" rx="8" fill="#c9a227" filter="url(#ds)"/>
  <text x="240" y="138" text-anchor="middle" fill="#fff" font-size="13" font-weight="600">Two-Sided Fee</text>
  <text x="240" y="153" text-anchor="middle" fill="#f0e6c0" font-size="10" font-style="italic">deducted from both input and output</text>

  <line x1="240" y1="166" x2="240" y2="192" stroke="#b0b8c4" stroke-width="1.5" marker-end="url(#ah)"/>

  <!-- Constant Product on Tier -->
  <rect x="115" y="198" width="250" height="48" rx="8" fill="#5b8a72" filter="url(#ds)"/>
  <text x="240" y="218" text-anchor="middle" fill="#fff" font-size="13" font-weight="600">Constant-Product Formula</text>
  <text x="240" y="233" text-anchor="middle" fill="#d0e0d4" font-size="10" font-style="italic">output amount so k always grows</text>

  <!-- Fork: 80% stays, 20% spills -->
  <line x1="240" y1="246" x2="240" y2="266" stroke="#b0b8c4" stroke-width="1.5"/>

  <!-- 80/20 diamond -->
  <polygon points="240,266 260,282 240,298 220,282" fill="#e4e7ec" stroke="#b0b8c4" stroke-width="1.5"/>

  <!-- 20% right -> Inline Spill -->
  <line x1="260" y1="282" x2="345" y2="282" stroke="#b0b8c4" stroke-width="1.5" marker-end="url(#ah)"/>
  <rect x="270" y="270" width="60" height="14" rx="3" fill="#f0ebe0"/>
  <text x="300" y="280" text-anchor="middle" fill="#a09070" font-size="10" font-weight="500">20 %</text>

  <rect x="351" y="262" width="112" height="40" rx="6" fill="#c9a227" filter="url(#ds)" opacity="0.7"/>
  <text x="407" y="279" text-anchor="middle" fill="#fff" font-size="11" font-weight="600">Inline Spill</text>
  <text x="407" y="293" text-anchor="middle" fill="#f0e6c0" font-size="9" font-style="italic">to weaker tiers</text>

  <!-- 80% label -->
  <rect x="193" y="290" width="42" height="14" rx="3" fill="#e8f0e8"/>
  <text x="214" y="300" text-anchor="middle" fill="#5b8a72" font-size="10" font-weight="500">80 %</text>

  <!-- continue down -->
  <line x1="240" y1="298" x2="240" y2="322" stroke="#b0b8c4" stroke-width="1.5" marker-end="url(#ah)"/>

  <!-- Tier Reserves Updated -->
  <rect x="115" y="328" width="250" height="40" rx="8" fill="#5b8a72" filter="url(#ds)" opacity="0.7"/>
  <text x="240" y="345" text-anchor="middle" fill="#fff" font-size="12" font-weight="600">Reserves Updated</text>
  <text x="240" y="359" text-anchor="middle" fill="#d0e0d4" font-size="10" font-style="italic">80% of fee stays with LPs</text>

  <line x1="240" y1="368" x2="240" y2="394" stroke="#b0b8c4" stroke-width="1.5" marker-end="url(#ah)"/>

  <!-- Output -->
  <rect x="120" y="400" width="240" height="48" rx="24" fill="#4a6fa5" filter="url(#ds)"/>
  <text x="240" y="420" text-anchor="middle" fill="#fff" font-size="13" font-weight="600">Trader receives Asset B</text>
  <text x="240" y="435" text-anchor="middle" fill="#c0d0e4" font-size="10" font-style="italic">>= min_output (slippage protection)</text>
</svg>
