<svg xmlns="http://www.w3.org/2000/svg" viewBox="0 0 520 550" font-family="-apple-system, BlinkMacSystemFont, 'Segoe UI', Helvetica, Arial, sans-serif">
  <defs>
    <marker id="ah" markerWidth="8" markerHeight="6" refX="8" refY="3" orient="auto">
      <polygon points="0 0, 8 3, 0 6" fill="#b0b8c4"/>
    </marker>
    <filter id="ds"><feDropShadow dx="0" dy="1" stdDeviation="2" flood-opacity="0.08"/></filter>
  </defs>

  <rect width="520" height="550" rx="10" fill="#f7f8fa"/>

  <!-- Title -->
  <text x="260" y="24" text-anchor="middle" fill="#999" font-size="11" font-weight="500" letter-spacing="1">SMART-ROUTED SWAP</text>

  <!-- Input -->
  <rect x="130" y="38" width="260" height="48" rx="24" fill="#4a6fa5" filter="url(#ds)"/>
  <text x="260" y="58" text-anchor="middle" fill="#fff" font-size="13" font-weight="600">Trader sends input</text>
  <text x="260" y="73" text-anchor="middle" fill="#c0d0e4" font-size="10" font-style="italic">no tier specified — contract picks best path</text>

  <line x1="260" y1="86" x2="260" y2="112" stroke="#b0b8c4" stroke-width="1.5" marker-end="url(#ah)"/>

  <!-- Read RT Box -->
  <rect x="130" y="118" width="260" height="48" rx="8" fill="#5b8a72" filter="url(#ds)"/>
  <text x="260" y="138" text-anchor="middle" fill="#fff" font-size="13" font-weight="600">Read Routing Table</text>
  <text x="260" y="153" text-anchor="middle" fill="#d0e0d4" font-size="10" font-style="italic">ranks tiers by fee-adjusted liquidity depth</text>

  <line x1="260" y1="166" x2="260" y2="192" stroke="#b0b8c4" stroke-width="1.5" marker-end="url(#ah)"/>

  <!-- Waterfall Routing -->
  <rect x="105" y="198" width="310" height="48" rx="8" fill="#c9a227" filter="url(#ds)"/>
  <text x="260" y="218" text-anchor="middle" fill="#fff" font-size="13" font-weight="600">Waterfall Capacity Check</text>
  <text x="260" y="233" text-anchor="middle" fill="#f0e6c0" font-size="10" font-style="italic">how much can best tier absorb before 2nd is better?</text>

  <line x1="260" y1="246" x2="260" y2="268" stroke="#b0b8c4" stroke-width="1.5" marker-end="url(#ah)"/>

  <!-- Tier allocation panel -->
  <rect x="28" y="274" width="464" height="120" rx="10" fill="#f0ebe0" stroke="#ddd4c0" stroke-width="1"/>
  <text x="260" y="292" text-anchor="middle" fill="#a09070" font-size="10" font-weight="500" letter-spacing="1">TIER ALLOCATION (up to 3)</text>

  <!-- Three tier boxes -->
  <rect x="42" y="302" width="138" height="78" rx="6" fill="#b05c3b" filter="url(#ds)"/>
  <text x="111" y="324" text-anchor="middle" fill="#fff" font-size="12" font-weight="600">Best Tier</text>
  <line x1="56" y1="332" x2="166" y2="332" stroke="#e0c8c0" stroke-width="0.5"/>
  <text x="111" y="348" text-anchor="middle" fill="#e0c8c0" font-size="10">fills up to capacity</text>
  <text x="111" y="364" text-anchor="middle" fill="#e0c8c0" font-size="10">or 100% if trade is small</text>

  <rect x="191" y="302" width="138" height="78" rx="6" fill="#b05c3b" filter="url(#ds)" opacity="0.8"/>
  <text x="260" y="324" text-anchor="middle" fill="#fff" font-size="12" font-weight="600">2nd Best</text>
  <line x1="205" y1="332" x2="315" y2="332" stroke="#e0c8c0" stroke-width="0.5"/>
  <text x="260" y="348" text-anchor="middle" fill="#e0c8c0" font-size="10">proportional share</text>
  <text x="260" y="364" text-anchor="middle" fill="#e0c8c0" font-size="10">of remaining input</text>

  <rect x="340" y="302" width="138" height="78" rx="6" fill="#b05c3b" filter="url(#ds)" opacity="0.6"/>
  <text x="409" y="324" text-anchor="middle" fill="#fff" font-size="12" font-weight="600">3rd Best</text>
  <line x1="354" y1="332" x2="464" y2="332" stroke="#e0c8c0" stroke-width="0.5"/>
  <text x="409" y="348" text-anchor="middle" fill="#e0c8c0" font-size="10">overflow only</text>
  <text x="409" y="364" text-anchor="middle" fill="#e0c8c0" font-size="10">for very large trades</text>

  <line x1="260" y1="394" x2="260" y2="418" stroke="#b0b8c4" stroke-width="1.5" marker-end="url(#ah)"/>

  <!-- Each sub-swap label -->
  <rect x="105" y="424" width="310" height="44" rx="8" fill="#5b8a72" filter="url(#ds)"/>
  <text x="260" y="443" text-anchor="middle" fill="#fff" font-size="13" font-weight="600">Independent Sub-Swaps</text>
  <text x="260" y="458" text-anchor="middle" fill="#d0e0d4" font-size="10" font-style="italic">each applies fee + k-growth + spill separately</text>

  <line x1="260" y1="468" x2="260" y2="492" stroke="#b0b8c4" stroke-width="1.5" marker-end="url(#ah)"/>

  <!-- Combined output -->
  <rect x="130" y="498" width="260" height="44" rx="22" fill="#4a6fa5" filter="url(#ds)"/>
  <text x="260" y="517" text-anchor="middle" fill="#fff" font-size="13" font-weight="600">Combined Output</text>
  <text x="260" y="532" text-anchor="middle" fill="#c0d0e4" font-size="10" font-style="italic">≥ min_output (slippage protection)</text>
</svg>
