<svg xmlns="http://www.w3.org/2000/svg" viewBox="0 0 520 500" font-family="-apple-system, BlinkMacSystemFont, 'Segoe UI', Helvetica, Arial, sans-serif">
  <defs>
    <marker id="ah" markerWidth="8" markerHeight="6" refX="8" refY="3" orient="auto">
      <polygon points="0 0, 8 3, 0 6" fill="#b0b8c4"/>
    </marker>
    <filter id="ds"><feDropShadow dx="0" dy="1" stdDeviation="2" flood-opacity="0.08"/></filter>
  </defs>

  <rect width="520" height="500" rx="10" fill="#f7f8fa"/>

  <!-- Title -->
  <text x="260" y="24" text-anchor="middle" fill="#999" font-size="11" font-weight="500" letter-spacing="1">CALLER-DIRECTED ROUTED SWAP</text>

  <!-- Input -->
  <rect x="110" y="38" width="300" height="48" rx="24" fill="#4a6fa5" filter="url(#ds)"/>
  <text x="260" y="58" text-anchor="middle" fill="#fff" font-size="13" font-weight="600">Trader sends input + routing legs</text>
  <text x="260" y="73" text-anchor="middle" fill="#c0d0e4" font-size="10" font-style="italic">caller specifies exactly which tiers and how much</text>

  <line x1="260" y1="86" x2="260" y2="112" stroke="#b0b8c4" stroke-width="1.5" marker-end="url(#ah)"/>

  <!-- Unpack & validate -->
  <rect x="130" y="118" width="260" height="44" rx="8" fill="#5b8a72" filter="url(#ds)"/>
  <text x="260" y="137" text-anchor="middle" fill="#fff" font-size="13" font-weight="600">Unpack &amp; Validate Legs</text>
  <text x="260" y="152" text-anchor="middle" fill="#d0e0d4" font-size="10" font-style="italic">leg amounts must sum to total input</text>

  <line x1="260" y1="162" x2="260" y2="184" stroke="#b0b8c4" stroke-width="1.5" marker-end="url(#ah)"/>

  <!-- Legs panel -->
  <rect x="28" y="190" width="464" height="100" rx="10" fill="#f0ebe0" stroke="#ddd4c0" stroke-width="1"/>
  <text x="260" y="208" text-anchor="middle" fill="#a09070" font-size="10" font-weight="500" letter-spacing="1">EXECUTE LEGS SEQUENTIALLY (1 – 6)</text>

  <!-- Leg boxes -->
  <rect x="40" y="218" width="70" height="58" rx="6" fill="#b05c3b" filter="url(#ds)"/>
  <text x="75" y="238" text-anchor="middle" fill="#fff" font-size="11" font-weight="600">Leg 1</text>
  <text x="75" y="254" text-anchor="middle" fill="#e0c8c0" font-size="9">T₂ · 400k</text>
  <text x="75" y="268" text-anchor="middle" fill="#e0c8c0" font-size="8" font-style="italic">fee + k-growth</text>

  <rect x="118" y="218" width="70" height="58" rx="6" fill="#b05c3b" filter="url(#ds)"/>
  <text x="153" y="238" text-anchor="middle" fill="#fff" font-size="11" font-weight="600">Leg 2</text>
  <text x="153" y="254" text-anchor="middle" fill="#e0c8c0" font-size="9">T₀ · 350k</text>
  <text x="153" y="268" text-anchor="middle" fill="#e0c8c0" font-size="8" font-style="italic">fee + k-growth</text>

  <rect x="196" y="218" width="70" height="58" rx="6" fill="#b05c3b" filter="url(#ds)"/>
  <text x="231" y="238" text-anchor="middle" fill="#fff" font-size="11" font-weight="600">Leg 3</text>
  <text x="231" y="254" text-anchor="middle" fill="#e0c8c0" font-size="9">T₁ · 250k</text>
  <text x="231" y="268" text-anchor="middle" fill="#e0c8c0" font-size="8" font-style="italic">fee + k-growth</text>

  <!-- Ellipsis -->
  <text x="300" y="252" text-anchor="middle" fill="#a09070" font-size="16" font-weight="600">···</text>

  <!-- Leg N -->
  <rect x="338" y="218" width="70" height="58" rx="6" fill="#b05c3b" filter="url(#ds)" opacity="0.6"/>
  <text x="373" y="238" text-anchor="middle" fill="#fff" font-size="11" font-weight="600">Leg N</text>
  <text x="373" y="254" text-anchor="middle" fill="#e0c8c0" font-size="9">T₄ · rest</text>
  <text x="373" y="268" text-anchor="middle" fill="#e0c8c0" font-size="8" font-style="italic">fee + k-growth</text>

  <line x1="260" y1="290" x2="260" y2="314" stroke="#b0b8c4" stroke-width="1.5" marker-end="url(#ah)"/>

  <!-- Single inline spill -->
  <rect x="130" y="320" width="260" height="44" rx="8" fill="#c9a227" filter="url(#ds)"/>
  <text x="260" y="339" text-anchor="middle" fill="#fff" font-size="13" font-weight="600">Single Inline Spill</text>
  <text x="260" y="354" text-anchor="middle" fill="#f0e6c0" font-size="10" font-style="italic">combined protocol fees from all legs</text>

  <line x1="260" y1="364" x2="260" y2="388" stroke="#b0b8c4" stroke-width="1.5" marker-end="url(#ah)"/>

  <!-- RT update -->
  <rect x="130" y="394" width="260" height="40" rx="8" fill="#5b8a72" filter="url(#ds)" opacity="0.7"/>
  <text x="260" y="411" text-anchor="middle" fill="#fff" font-size="12" font-weight="600">Update Routing Table</text>
  <text x="260" y="425" text-anchor="middle" fill="#d0e0d4" font-size="10" font-style="italic">scores recalculated for affected tiers</text>

  <line x1="260" y1="434" x2="260" y2="456" stroke="#b0b8c4" stroke-width="1.5" marker-end="url(#ah)"/>

  <!-- Output -->
  <rect x="130" y="462" width="260" height="32" rx="16" fill="#4a6fa5" filter="url(#ds)"/>
  <text x="260" y="483" text-anchor="middle" fill="#fff" font-size="13" font-weight="600">Combined Output ≥ min_output</text>
</svg>
