<svg xmlns="http://www.w3.org/2000/svg" viewBox="0 0 460 440" font-family="-apple-system, BlinkMacSystemFont, 'Segoe UI', Helvetica, Arial, sans-serif">
  <defs>
    <marker id="ah" markerWidth="8" markerHeight="6" refX="8" refY="3" orient="auto">
      <polygon points="0 0, 8 3, 0 6" fill="#b0b8c4"/>
    </marker>
    <filter id="ds"><feDropShadow dx="0" dy="1" stdDeviation="2" flood-opacity="0.08"/></filter>
  </defs>

  <rect width="460" height="440" rx="10" fill="#f7f8fa"/>

  <text x="230" y="22" text-anchor="middle" fill="#999" font-size="11" font-weight="500" letter-spacing="1">TIER LIFECYCLE</text>

  <!-- Unseeded -->
  <rect x="130" y="36" width="200" height="52" rx="8" fill="#d0d4dc" filter="url(#ds)"/>
  <text x="230" y="58" text-anchor="middle" fill="#555" font-size="14" font-weight="600">Unseeded</text>
  <text x="230" y="74" text-anchor="middle" fill="#777" font-size="10" font-style="italic">no reserves allocated</text>

  <!-- Transition: seed -->
  <line x1="230" y1="88" x2="230" y2="118" stroke="#b0b8c4" stroke-width="1.5" marker-end="url(#ah)"/>
  <rect x="191" y="94" width="78" height="16" rx="3" fill="#f0ebe0"/>
  <text x="230" y="105" text-anchor="middle" fill="#a09070" font-size="10" font-weight="500">seed_tier</text>

  <!-- Seeded -->
  <rect x="130" y="124" width="200" height="52" rx="8" fill="#c9a227" filter="url(#ds)"/>
  <text x="230" y="146" text-anchor="middle" fill="#fff" font-size="14" font-weight="600">Seeded</text>
  <text x="230" y="162" text-anchor="middle" fill="#f0e6c0" font-size="10" font-style="italic">reserves 1:1, 1 LP locked</text>

  <!-- Transition: first mint -->
  <line x1="230" y1="176" x2="230" y2="206" stroke="#b0b8c4" stroke-width="1.5" marker-end="url(#ah)"/>
  <rect x="191" y="182" width="78" height="16" rx="3" fill="#e8f0e8"/>
  <text x="230" y="193" text-anchor="middle" fill="#5b8a72" font-size="10" font-weight="500">first mint</text>

  <!-- Active -->
  <rect x="120" y="212" width="220" height="56" rx="8" fill="#5b8a72" filter="url(#ds)"/>
  <text x="230" y="236" text-anchor="middle" fill="#fff" font-size="16" font-weight="700">Active</text>
  <text x="230" y="254" text-anchor="middle" fill="#d0e0d4" font-size="10" font-style="italic">swaps, mints, burns enabled</text>

  <!-- Transition: all LP burned -->
  <line x1="230" y1="268" x2="230" y2="298" stroke="#b0b8c4" stroke-width="1.5" marker-end="url(#ah)"/>
  <rect x="184" y="274" width="92" height="16" rx="3" fill="#f0e4e0"/>
  <text x="230" y="285" text-anchor="middle" fill="#b05c3b" font-size="10" font-weight="500">all LP burned</text>

  <!-- Sweep & Reset -->
  <rect x="105" y="304" width="250" height="64" rx="8" fill="#7a5b8a" filter="url(#ds)"/>
  <text x="230" y="326" text-anchor="middle" fill="#fff" font-size="13" font-weight="600">Sweep &amp; Reset</text>
  <text x="230" y="344" text-anchor="middle" fill="#d8cce0" font-size="11">excess reserves -> treasury</text>
  <text x="230" y="358" text-anchor="middle" fill="#d8cce0" font-size="11">tier resets to seed state</text>

  <!-- Loop arrow: Sweep -> back to Seeded -->
  <path d="M 105 336 L 54 336 L 54 150 L 124 150" stroke="#5b8a72" stroke-width="1.5" fill="none" stroke-dasharray="5,3" marker-end="url(#ah)"/>

  <!-- Loop label - horizontal badge on left side -->
  <rect x="22" y="228" width="64" height="30" rx="4" fill="#e8f0e8" stroke="#5b8a72" stroke-width="0.5"/>
  <text x="54" y="240" text-anchor="middle" fill="#5b8a72" font-size="9" font-weight="500">re-mint</text>
  <text x="54" y="252" text-anchor="middle" fill="#5b8a72" font-size="9" font-weight="500">reactivates</text>

  <!-- Caption -->
  <text x="230" y="400" text-anchor="middle" fill="#999" font-size="10">auto-activate on first deposit - auto-deactivate when last LP exits</text>
</svg>
